<?xml version="1.0" encoding="utf-8" standalone="no"?>
<!DOCTYPE svg PUBLIC "-//W3C//DTD SVG 1.1//EN"
  "http://www.w3.org/Graphics/SVG/1.1/DTD/svg11.dtd">
<svg xmlns:xlink="http://www.w3.org/1999/xlink" width="576pt" height="576pt" viewBox="0 0 576 576" xmlns="http://www.w3.org/2000/svg" version="1.1">
 <metadata>
  <rdf:RDF xmlns:dc="http://purl.org/dc/elements/1.1/" xmlns:cc="http://creativecommons.org/ns#" xmlns:rdf="http://www.w3.org/1999/02/22-rdf-syntax-ns#">
   <cc:Work>
    <dc:type rdf:resource="http://purl.org/dc/dcmitype/StillImage"/>
    <dc:date>2023-02-14T10:35:32.489979</dc:date>
    <dc:format>image/svg+xml</dc:format>
    <dc:creator>
     <cc:Agent>
      <dc:title>Matplotlib v3.5.1, https://matplotlib.org/</dc:title>
     </cc:Agent>
    </dc:creator>
   </cc:Work>
  </rdf:RDF>
 </metadata>
 <defs>
  <style type="text/css">*{stroke-linejoin: round; stroke-linecap: butt}</style>
 </defs>
 <g id="figure_1">
  <g id="patch_1">
   <path d="M 0 576 
L 576 576 
L 576 0 
L 0 0 
L 0 576 
z
" style="fill: none"/>
  </g>
  <g id="axes_1">
   <g id="patch_2">
    <path d="M 72 504 
L 518.4 504 
L 518.4 69.12 
L 72 69.12 
z
" style="fill: #ffffff"/>
   </g>
   <g id="matplotlib.axis_1">
    <g id="xtick_1">
     <g id="line2d_1">
      <defs>
       <path id="mc96fda064b" d="M 0 0 
L 0 3.5 
" style="stroke: #000000; stroke-width: 0.8"/>
      </defs>
      <g>
       <use xlink:href="#mc96fda064b" x="92.290909" y="504" style="stroke: #000000; stroke-width: 0.8"/>
      </g>
     </g>
     <g id="text_1">
      <!-- 0 -->
      <g transform="translate(85.928409 526.196875)scale(0.2 -0.2)">
       <defs>
        <path id="DejaVuSans-30" d="M 2034 4250 
Q 1547 4250 1301 3770 
Q 1056 3291 1056 2328 
Q 1056 1369 1301 889 
Q 1547 409 2034 409 
Q 2525 409 2770 889 
Q 3016 1369 3016 2328 
Q 3016 3291 2770 3770 
Q 2525 4250 2034 4250 
z
M 2034 4750 
Q 2819 4750 3233 4129 
Q 3647 3509 3647 2328 
Q 3647 1150 3233 529 
Q 2819 -91 2034 -91 
Q 1250 -91 836 529 
Q 422 1150 422 2328 
Q 422 3509 836 4129 
Q 1250 4750 2034 4750 
z
" transform="scale(0.015625)"/>
       </defs>
       <use xlink:href="#DejaVuSans-30"/>
      </g>
     </g>
    </g>
    <g id="xtick_2">
     <g id="line2d_2">
      <g>
       <use xlink:href="#mc96fda064b" x="498.109091" y="504" style="stroke: #000000; stroke-width: 0.8"/>
      </g>
     </g>
     <g id="text_2">
      <!-- 1 -->
      <g transform="translate(491.746591 526.196875)scale(0.2 -0.2)">
       <defs>
        <path id="DejaVuSans-31" d="M 794 531 
L 1825 531 
L 1825 4091 
L 703 3866 
L 703 4441 
L 1819 4666 
L 2450 4666 
L 2450 531 
L 3481 531 
L 3481 0 
L 794 0 
L 794 531 
z
" transform="scale(0.015625)"/>
       </defs>
       <use xlink:href="#DejaVuSans-31"/>
      </g>
     </g>
    </g>
    <g id="text_3">
     <!-- z -->
     <g transform="translate(289.951562 535.553125)scale(0.2 -0.2)">
      <defs>
       <path id="DejaVuSans-7a" d="M 353 3500 
L 3084 3500 
L 3084 2975 
L 922 459 
L 3084 459 
L 3084 0 
L 275 0 
L 275 525 
L 2438 3041 
L 353 3041 
L 353 3500 
z
" transform="scale(0.015625)"/>
      </defs>
      <use xlink:href="#DejaVuSans-7a"/>
     </g>
    </g>
   </g>
   <g id="matplotlib.axis_2">
    <g id="ytick_1">
     <g id="line2d_3">
      <defs>
       <path id="mbcff34b0ca" d="M 0 0 
L -3.5 0 
" style="stroke: #000000; stroke-width: 0.8"/>
      </defs>
      <g>
       <use xlink:href="#mbcff34b0ca" x="72" y="484.232884" style="stroke: #000000; stroke-width: 0.8"/>
      </g>
     </g>
     <g id="text_4">
      <!-- 0 -->
      <g transform="translate(52.275 491.831321)scale(0.2 -0.2)">
       <use xlink:href="#DejaVuSans-30"/>
      </g>
     </g>
    </g>
    <g id="ytick_2">
     <g id="line2d_4">
      <g>
       <use xlink:href="#mbcff34b0ca" x="72" y="88.887273" style="stroke: #000000; stroke-width: 0.8"/>
      </g>
     </g>
     <g id="text_5">
      <!-- 1 -->
      <g transform="translate(52.275 96.48571)scale(0.2 -0.2)">
       <use xlink:href="#DejaVuSans-31"/>
      </g>
     </g>
    </g>
    <g id="text_6">
     <!-- density -->
     <g transform="translate(58.115625 323.225625)rotate(-90)scale(0.2 -0.2)">
      <defs>
       <path id="DejaVuSans-64" d="M 2906 2969 
L 2906 4863 
L 3481 4863 
L 3481 0 
L 2906 0 
L 2906 525 
Q 2725 213 2448 61 
Q 2172 -91 1784 -91 
Q 1150 -91 751 415 
Q 353 922 353 1747 
Q 353 2572 751 3078 
Q 1150 3584 1784 3584 
Q 2172 3584 2448 3432 
Q 2725 3281 2906 2969 
z
M 947 1747 
Q 947 1113 1208 752 
Q 1469 391 1925 391 
Q 2381 391 2643 752 
Q 2906 1113 2906 1747 
Q 2906 2381 2643 2742 
Q 2381 3103 1925 3103 
Q 1469 3103 1208 2742 
Q 947 2381 947 1747 
z
" transform="scale(0.015625)"/>
       <path id="DejaVuSans-65" d="M 3597 1894 
L 3597 1613 
L 953 1613 
Q 991 1019 1311 708 
Q 1631 397 2203 397 
Q 2534 397 2845 478 
Q 3156 559 3463 722 
L 3463 178 
Q 3153 47 2828 -22 
Q 2503 -91 2169 -91 
Q 1331 -91 842 396 
Q 353 884 353 1716 
Q 353 2575 817 3079 
Q 1281 3584 2069 3584 
Q 2775 3584 3186 3129 
Q 3597 2675 3597 1894 
z
M 3022 2063 
Q 3016 2534 2758 2815 
Q 2500 3097 2075 3097 
Q 1594 3097 1305 2825 
Q 1016 2553 972 2059 
L 3022 2063 
z
" transform="scale(0.015625)"/>
       <path id="DejaVuSans-6e" d="M 3513 2113 
L 3513 0 
L 2938 0 
L 2938 2094 
Q 2938 2591 2744 2837 
Q 2550 3084 2163 3084 
Q 1697 3084 1428 2787 
Q 1159 2491 1159 1978 
L 1159 0 
L 581 0 
L 581 3500 
L 1159 3500 
L 1159 2956 
Q 1366 3272 1645 3428 
Q 1925 3584 2291 3584 
Q 2894 3584 3203 3211 
Q 3513 2838 3513 2113 
z
" transform="scale(0.015625)"/>
       <path id="DejaVuSans-73" d="M 2834 3397 
L 2834 2853 
Q 2591 2978 2328 3040 
Q 2066 3103 1784 3103 
Q 1356 3103 1142 2972 
Q 928 2841 928 2578 
Q 928 2378 1081 2264 
Q 1234 2150 1697 2047 
L 1894 2003 
Q 2506 1872 2764 1633 
Q 3022 1394 3022 966 
Q 3022 478 2636 193 
Q 2250 -91 1575 -91 
Q 1294 -91 989 -36 
Q 684 19 347 128 
L 347 722 
Q 666 556 975 473 
Q 1284 391 1588 391 
Q 1994 391 2212 530 
Q 2431 669 2431 922 
Q 2431 1156 2273 1281 
Q 2116 1406 1581 1522 
L 1381 1569 
Q 847 1681 609 1914 
Q 372 2147 372 2553 
Q 372 3047 722 3315 
Q 1072 3584 1716 3584 
Q 2034 3584 2315 3537 
Q 2597 3491 2834 3397 
z
" transform="scale(0.015625)"/>
       <path id="DejaVuSans-69" d="M 603 3500 
L 1178 3500 
L 1178 0 
L 603 0 
L 603 3500 
z
M 603 4863 
L 1178 4863 
L 1178 4134 
L 603 4134 
L 603 4863 
z
" transform="scale(0.015625)"/>
       <path id="DejaVuSans-74" d="M 1172 4494 
L 1172 3500 
L 2356 3500 
L 2356 3053 
L 1172 3053 
L 1172 1153 
Q 1172 725 1289 603 
Q 1406 481 1766 481 
L 2356 481 
L 2356 0 
L 1766 0 
Q 1100 0 847 248 
Q 594 497 594 1153 
L 594 3053 
L 172 3053 
L 172 3500 
L 594 3500 
L 594 4494 
L 1172 4494 
z
" transform="scale(0.015625)"/>
       <path id="DejaVuSans-79" d="M 2059 -325 
Q 1816 -950 1584 -1140 
Q 1353 -1331 966 -1331 
L 506 -1331 
L 506 -850 
L 844 -850 
Q 1081 -850 1212 -737 
Q 1344 -625 1503 -206 
L 1606 56 
L 191 3500 
L 800 3500 
L 1894 763 
L 2988 3500 
L 3597 3500 
L 2059 -325 
z
" transform="scale(0.015625)"/>
      </defs>
      <use xlink:href="#DejaVuSans-64"/>
      <use xlink:href="#DejaVuSans-65" x="63.476562"/>
      <use xlink:href="#DejaVuSans-6e" x="125"/>
      <use xlink:href="#DejaVuSans-73" x="188.378906"/>
      <use xlink:href="#DejaVuSans-69" x="240.478516"/>
      <use xlink:href="#DejaVuSans-74" x="268.261719"/>
      <use xlink:href="#DejaVuSans-79" x="307.470703"/>
     </g>
    </g>
   </g>
   <g id="line2d_5">
    <path d="M 92.290909 88.887273 
L 94.32 147.730771 
L 96.349091 198.193103 
L 98.378182 241.4056 
L 100.407273 278.356728 
L 102.436364 309.90865 
L 104.465455 336.812086 
L 106.494545 359.719595 
L 108.523636 379.19745 
L 110.552727 395.736211 
L 112.581818 409.76013 
L 114.610909 421.635491 
L 116.64 431.678004 
L 118.669091 440.159327 
L 120.698182 447.312832 
L 122.727273 453.338661 
L 124.756364 458.408183 
L 126.785455 462.667886 
L 128.814545 466.242793 
L 130.843636 469.239431 
L 132.872727 471.748431 
L 134.901818 473.84677 
L 136.930909 475.599737 
L 138.96 477.062617 
L 140.989091 478.282154 
L 143.018182 479.297815 
L 145.047273 480.142873 
L 147.076364 480.845339 
L 151.134545 481.912909 
L 155.192727 482.646989 
L 159.250909 483.150304 
L 165.338182 483.623233 
L 173.454545 483.949349 
L 185.629091 484.142037 
L 209.978182 484.222496 
L 358.101818 484.231051 
L 406.8 484.123223 
L 418.974545 483.889622 
L 427.090909 483.494543 
L 433.178182 482.922406 
L 437.236364 482.314359 
L 441.294545 481.428761 
L 443.323636 480.845339 
L 445.352727 480.142873 
L 447.381818 479.297815 
L 449.410909 478.282154 
L 451.44 477.062617 
L 453.469091 475.599737 
L 455.498182 473.84677 
L 457.527273 471.748431 
L 459.556364 469.239431 
L 461.585455 466.242793 
L 463.614545 462.667886 
L 465.643636 458.408183 
L 467.672727 453.338661 
L 469.701818 447.312832 
L 471.730909 440.159327 
L 473.76 431.678004 
L 475.789091 421.635491 
L 477.818182 409.76013 
L 479.847273 395.736211 
L 481.876364 379.19745 
L 483.905455 359.719595 
L 485.934545 336.812086 
L 487.963636 309.90865 
L 489.992727 278.356728 
L 492.021818 241.4056 
L 494.050909 198.193103 
L 496.08 147.730771 
L 498.109091 88.887273 
L 498.109091 88.887273 
" clip-path="url(#p975aac9d26)" style="fill: none; stroke: #ffc0ad; stroke-width: 1.5; stroke-linecap: square"/>
   </g>
   <g id="line2d_6">
    <path d="M 92.290909 88.887273 
L 96.349091 127.996883 
L 100.407273 163.845973 
L 104.465455 196.624966 
L 108.523636 226.522503 
L 112.581818 253.72439 
L 116.64 278.412639 
L 120.698182 300.764584 
L 124.756364 320.952096 
L 128.814545 339.140898 
L 132.872727 355.489978 
L 136.930909 370.151111 
L 140.989091 383.268483 
L 145.047273 394.978414 
L 149.105455 405.409186 
L 153.163636 414.680955 
L 157.221818 422.90576 
L 161.28 430.187604 
L 165.338182 436.622607 
L 169.396364 442.299225 
L 173.454545 447.29852 
L 177.512727 451.694472 
L 181.570909 455.554329 
L 185.629091 458.938982 
L 189.687273 461.903357 
L 193.745455 464.496819 
L 197.803636 466.763575 
L 201.861818 468.743082 
L 205.92 470.470439 
L 209.978182 471.976768 
L 214.036364 473.289584 
L 218.094545 474.43314 
L 224.181818 475.877018 
L 230.269091 477.048559 
L 236.356364 477.997663 
L 244.472727 478.98594 
L 252.589091 479.724751 
L 262.734545 480.380567 
L 272.88 480.808532 
L 285.054545 481.088696 
L 297.229091 481.155738 
L 309.403636 481.020469 
L 321.578182 480.661033 
L 331.723636 480.149154 
L 339.84 479.560112 
L 347.956364 478.764815 
L 356.072727 477.703336 
L 362.16 476.685014 
L 368.247273 475.428754 
L 374.334545 473.881122 
L 378.392727 472.655777 
L 382.450909 471.249432 
L 386.509091 469.636246 
L 390.567273 467.786944 
L 394.625455 465.668462 
L 398.683636 463.243573 
L 402.741818 460.470493 
L 406.8 457.302488 
L 410.858182 453.687462 
L 414.916364 449.567558 
L 418.974545 444.878752 
L 423.032727 439.550478 
L 427.090909 433.505255 
L 431.149091 426.658362 
L 433.178182 422.90576 
L 435.207273 418.917541 
L 437.236364 414.680955 
L 439.265455 410.182754 
L 441.294545 405.409186 
L 443.323636 400.345994 
L 445.352727 394.978414 
L 447.381818 389.291171 
L 449.410909 383.268483 
L 451.44 376.89406 
L 453.469091 370.151111 
L 457.527273 355.489978 
L 461.585455 339.140898 
L 465.643636 320.952096 
L 469.701818 300.764584 
L 473.76 278.412639 
L 477.818182 253.72439 
L 481.876364 226.522503 
L 485.934545 196.624966 
L 489.992727 163.845973 
L 494.050909 127.996883 
L 498.109091 88.887273 
L 498.109091 88.887273 
" clip-path="url(#p975aac9d26)" style="fill: none; stroke: #ff430a; stroke-width: 1.5; stroke-linecap: square"/>
   </g>
   <g id="line2d_7">
    <path d="M 92.290909 481.413782 
L 100.407273 480.677576 
L 108.523636 479.724076 
L 114.610909 478.826113 
L 120.698182 477.731684 
L 126.785455 476.396335 
L 132.872727 474.765917 
L 136.930909 473.483163 
L 140.989091 472.017698 
L 145.047273 470.343939 
L 149.105455 468.433127 
L 153.163636 466.253088 
L 157.221818 463.768 
L 161.28 460.938223 
L 165.338182 457.72018 
L 169.396364 454.066343 
L 173.454545 449.925336 
L 177.512727 445.242204 
L 181.570909 439.958885 
L 185.629091 434.014929 
L 189.687273 427.34851 
L 193.745455 419.897777 
L 197.803636 411.602585 
L 201.861818 402.406623 
L 205.92 392.259979 
L 209.978182 381.122103 
L 214.036364 368.96516 
L 218.094545 355.777678 
L 222.152727 341.568397 
L 226.210909 326.370141 
L 230.269091 310.243528 
L 234.327273 293.280265 
L 240.414545 266.550557 
L 248.530909 229.449337 
L 256.647273 192.391684 
L 260.705455 174.581336 
L 264.763636 157.664463 
L 268.821818 141.962036 
L 270.850909 134.665639 
L 272.88 127.790583 
L 274.909091 121.373858 
L 276.938182 115.450727 
L 278.967273 110.054367 
L 280.996364 105.215522 
L 283.025455 100.96218 
L 285.054545 97.319263 
L 287.083636 94.308356 
L 289.112727 91.947465 
L 291.141818 90.250813 
L 293.170909 89.228678 
L 295.2 88.887273 
L 297.229091 89.228678 
L 299.258182 90.250813 
L 301.287273 91.947465 
L 303.316364 94.308356 
L 305.345455 97.319263 
L 307.374545 100.96218 
L 309.403636 105.215522 
L 311.432727 110.054367 
L 313.461818 115.450727 
L 315.490909 121.373858 
L 317.52 127.790583 
L 319.549091 134.665639 
L 323.607273 149.641425 
L 327.665455 165.99118 
L 331.723636 183.394761 
L 337.810909 210.780748 
L 352.014545 275.605735 
L 358.101818 301.859455 
L 362.16 318.417911 
L 366.218182 334.089795 
L 370.276364 348.799321 
L 374.334545 362.50021 
L 378.392727 375.17216 
L 382.450909 386.817024 
L 386.509091 397.454927 
L 390.567273 407.120502 
L 394.625455 415.859376 
L 398.683636 423.725005 
L 402.741818 430.77591 
L 406.8 437.073332 
L 410.858182 442.6793 
L 414.916364 447.655099 
L 418.974545 452.060091 
L 423.032727 455.950859 
L 427.090909 459.380613 
L 431.149091 462.398828 
L 435.207273 465.051061 
L 439.265455 467.378912 
L 443.323636 469.420092 
L 447.381818 471.208575 
L 451.44 472.774797 
L 455.498182 474.145896 
L 459.556364 475.34597 
L 465.643636 476.871344 
L 471.730909 478.120884 
L 477.818182 479.145316 
L 485.934545 480.231809 
L 494.050909 481.069274 
L 498.109091 481.413782 
L 498.109091 481.413782 
" clip-path="url(#p975aac9d26)" style="fill: none; stroke: #a82700; stroke-width: 1.5; stroke-linecap: square"/>
   </g>
   <g id="line2d_8">
    <path d="M 92.290909 484.232727 
L 163.309091 484.138201 
L 175.483636 483.932746 
L 183.6 483.590674 
L 189.687273 483.10598 
L 193.745455 482.602027 
L 197.803636 481.884656 
L 201.861818 480.871486 
L 203.890909 480.221019 
L 205.92 479.453141 
L 207.949091 478.548943 
L 209.978182 477.48705 
L 212.007273 476.243431 
L 214.036364 474.791243 
L 216.065455 473.100699 
L 218.094545 471.138983 
L 220.123636 468.870222 
L 222.152727 466.255534 
L 224.181818 463.253169 
L 226.210909 459.81876 
L 228.24 455.905697 
L 230.269091 451.465654 
L 232.298182 446.449273 
L 234.327273 440.807021 
L 236.356364 434.490233 
L 238.385455 427.452343 
L 240.414545 419.650289 
L 242.443636 411.046097 
L 244.472727 401.608609 
L 246.501818 391.315324 
L 248.530909 380.154313 
L 250.56 368.126146 
L 252.589091 355.245772 
L 254.618182 341.544263 
L 258.676364 311.89168 
L 262.734545 279.789721 
L 274.909091 179.628327 
L 276.938182 164.25815 
L 278.967273 149.808069 
L 280.996364 136.482992 
L 283.025455 124.479085 
L 285.054545 113.978797 
L 287.083636 105.146054 
L 289.112727 98.121802 
L 291.141818 93.020083 
L 293.170909 89.924795 
L 295.2 88.887273 
L 297.229091 89.924795 
L 299.258182 93.020083 
L 301.287273 98.121802 
L 303.316364 105.146054 
L 305.345455 113.978797 
L 307.374545 124.479085 
L 309.403636 136.482992 
L 311.432727 149.808069 
L 313.461818 164.25815 
L 317.52 195.709912 
L 323.607273 246.177385 
L 329.694545 296.095631 
L 333.752727 327.070353 
L 337.810909 355.245772 
L 339.84 368.126146 
L 341.869091 380.154313 
L 343.898182 391.315324 
L 345.927273 401.608609 
L 347.956364 411.046097 
L 349.985455 419.650289 
L 352.014545 427.452343 
L 354.043636 434.490233 
L 356.072727 440.807021 
L 358.101818 446.449273 
L 360.130909 451.465654 
L 362.16 455.905697 
L 364.189091 459.81876 
L 366.218182 463.253169 
L 368.247273 466.255534 
L 370.276364 468.870222 
L 372.305455 471.138983 
L 374.334545 473.100699 
L 376.363636 474.791243 
L 378.392727 476.243431 
L 380.421818 477.48705 
L 382.450909 478.548943 
L 384.48 479.453141 
L 388.538182 480.871486 
L 392.596364 481.884656 
L 396.654545 482.602027 
L 400.712727 483.10598 
L 406.8 483.590674 
L 414.916364 483.932746 
L 427.090909 484.138201 
L 449.410909 484.221391 
L 498.109091 484.232727 
L 498.109091 484.232727 
" clip-path="url(#p975aac9d26)" style="fill: none; stroke: #661800; stroke-width: 1.5; stroke-linecap: square"/>
   </g>
   <g id="patch_3">
    <path d="M 72 504 
L 72 69.12 
" style="fill: none; stroke: #000000; stroke-width: 0.8; stroke-linejoin: miter; stroke-linecap: square"/>
   </g>
   <g id="patch_4">
    <path d="M 518.4 504 
L 518.4 69.12 
" style="fill: none; stroke: #000000; stroke-width: 0.8; stroke-linejoin: miter; stroke-linecap: square"/>
   </g>
   <g id="patch_5">
    <path d="M 72 504 
L 518.4 504 
" style="fill: none; stroke: #000000; stroke-width: 0.8; stroke-linejoin: miter; stroke-linecap: square"/>
   </g>
   <g id="patch_6">
    <path d="M 72 69.12 
L 518.4 69.12 
" style="fill: none; stroke: #000000; stroke-width: 0.8; stroke-linejoin: miter; stroke-linecap: square"/>
   </g>
   <g id="legend_1">
    <g id="patch_7">
     <path d="M 353.2 202.545 
L 504.4 202.545 
Q 508.4 202.545 508.4 198.545 
L 508.4 83.12 
Q 508.4 79.12 504.4 79.12 
L 353.2 79.12 
Q 349.2 79.12 349.2 83.12 
L 349.2 198.545 
Q 349.2 202.545 353.2 202.545 
z
" style="fill: #ffffff; opacity: 0.8; stroke: #cccccc; stroke-linejoin: miter"/>
    </g>
    <g id="line2d_9">
     <path d="M 357.2 95.316875 
L 377.2 95.316875 
L 397.2 95.316875 
" style="fill: none; stroke: #ffc0ad; stroke-width: 1.5; stroke-linecap: square"/>
    </g>
    <g id="text_7">
     <!-- $\alpha$ = 0.08 -->
     <g transform="translate(413.2 102.316875)scale(0.2 -0.2)">
      <defs>
       <path id="DejaVuSans-Oblique-3b1" d="M 2619 1628 
L 2622 2350 
Q 2625 3088 2069 3091 
Q 1653 3094 1394 2747 
Q 1069 2319 959 1747 
Q 825 1059 994 731 
Q 1169 397 1547 397 
Q 1966 397 2319 1063 
L 2619 1628 
z
M 2166 3578 
Q 3141 3594 3128 2584 
Q 3128 2584 3616 3500 
L 4128 3500 
L 3119 1603 
L 3109 919 
Q 3109 766 3194 638 
Q 3291 488 3391 488 
L 3669 488 
L 3575 0 
L 3228 0 
Q 2934 0 2722 263 
Q 2622 394 2619 669 
Q 2416 334 2066 50 
Q 1900 -81 1453 -78 
Q 722 -72 456 397 
Q 184 884 353 1747 
Q 534 2675 1009 3097 
Q 1544 3569 2166 3578 
z
" transform="scale(0.015625)"/>
       <path id="DejaVuSans-20" transform="scale(0.015625)"/>
       <path id="DejaVuSans-3d" d="M 678 2906 
L 4684 2906 
L 4684 2381 
L 678 2381 
L 678 2906 
z
M 678 1631 
L 4684 1631 
L 4684 1100 
L 678 1100 
L 678 1631 
z
" transform="scale(0.015625)"/>
       <path id="DejaVuSans-2e" d="M 684 794 
L 1344 794 
L 1344 0 
L 684 0 
L 684 794 
z
" transform="scale(0.015625)"/>
       <path id="DejaVuSans-38" d="M 2034 2216 
Q 1584 2216 1326 1975 
Q 1069 1734 1069 1313 
Q 1069 891 1326 650 
Q 1584 409 2034 409 
Q 2484 409 2743 651 
Q 3003 894 3003 1313 
Q 3003 1734 2745 1975 
Q 2488 2216 2034 2216 
z
M 1403 2484 
Q 997 2584 770 2862 
Q 544 3141 544 3541 
Q 544 4100 942 4425 
Q 1341 4750 2034 4750 
Q 2731 4750 3128 4425 
Q 3525 4100 3525 3541 
Q 3525 3141 3298 2862 
Q 3072 2584 2669 2484 
Q 3125 2378 3379 2068 
Q 3634 1759 3634 1313 
Q 3634 634 3220 271 
Q 2806 -91 2034 -91 
Q 1263 -91 848 271 
Q 434 634 434 1313 
Q 434 1759 690 2068 
Q 947 2378 1403 2484 
z
M 1172 3481 
Q 1172 3119 1398 2916 
Q 1625 2713 2034 2713 
Q 2441 2713 2670 2916 
Q 2900 3119 2900 3481 
Q 2900 3844 2670 4047 
Q 2441 4250 2034 4250 
Q 1625 4250 1398 4047 
Q 1172 3844 1172 3481 
z
" transform="scale(0.015625)"/>
      </defs>
      <use xlink:href="#DejaVuSans-Oblique-3b1" transform="translate(0 0.78125)"/>
      <use xlink:href="#DejaVuSans-20" transform="translate(65.917969 0.78125)"/>
      <use xlink:href="#DejaVuSans-3d" transform="translate(97.705078 0.78125)"/>
      <use xlink:href="#DejaVuSans-20" transform="translate(181.494141 0.78125)"/>
      <use xlink:href="#DejaVuSans-30" transform="translate(213.28125 0.78125)"/>
      <use xlink:href="#DejaVuSans-2e" transform="translate(276.904297 0.78125)"/>
      <use xlink:href="#DejaVuSans-30" transform="translate(308.691406 0.78125)"/>
      <use xlink:href="#DejaVuSans-38" transform="translate(372.314453 0.78125)"/>
     </g>
    </g>
    <g id="line2d_10">
     <path d="M 357.2 124.673125 
L 377.2 124.673125 
L 397.2 124.673125 
" style="fill: none; stroke: #ff430a; stroke-width: 1.5; stroke-linecap: square"/>
    </g>
    <g id="text_8">
     <!-- 0.10 -->
     <g transform="translate(413.2 131.673125)scale(0.2 -0.2)">
      <use xlink:href="#DejaVuSans-30"/>
      <use xlink:href="#DejaVuSans-2e" x="63.623047"/>
      <use xlink:href="#DejaVuSans-31" x="95.410156"/>
      <use xlink:href="#DejaVuSans-30" x="159.033203"/>
     </g>
    </g>
    <g id="line2d_11">
     <path d="M 357.2 154.029375 
L 377.2 154.029375 
L 397.2 154.029375 
" style="fill: none; stroke: #a82700; stroke-width: 1.5; stroke-linecap: square"/>
    </g>
    <g id="text_9">
     <!-- 0.12 -->
     <g transform="translate(413.2 161.029375)scale(0.2 -0.2)">
      <defs>
       <path id="DejaVuSans-32" d="M 1228 531 
L 3431 531 
L 3431 0 
L 469 0 
L 469 531 
Q 828 903 1448 1529 
Q 2069 2156 2228 2338 
Q 2531 2678 2651 2914 
Q 2772 3150 2772 3378 
Q 2772 3750 2511 3984 
Q 2250 4219 1831 4219 
Q 1534 4219 1204 4116 
Q 875 4013 500 3803 
L 500 4441 
Q 881 4594 1212 4672 
Q 1544 4750 1819 4750 
Q 2544 4750 2975 4387 
Q 3406 4025 3406 3419 
Q 3406 3131 3298 2873 
Q 3191 2616 2906 2266 
Q 2828 2175 2409 1742 
Q 1991 1309 1228 531 
z
" transform="scale(0.015625)"/>
      </defs>
      <use xlink:href="#DejaVuSans-30"/>
      <use xlink:href="#DejaVuSans-2e" x="63.623047"/>
      <use xlink:href="#DejaVuSans-31" x="95.410156"/>
      <use xlink:href="#DejaVuSans-32" x="159.033203"/>
     </g>
    </g>
    <g id="line2d_12">
     <path d="M 357.2 183.385625 
L 377.2 183.385625 
L 397.2 183.385625 
" style="fill: none; stroke: #661800; stroke-width: 1.5; stroke-linecap: square"/>
    </g>
    <g id="text_10">
     <!-- 0.14 -->
     <g transform="translate(413.2 190.385625)scale(0.2 -0.2)">
      <defs>
       <path id="DejaVuSans-34" d="M 2419 4116 
L 825 1625 
L 2419 1625 
L 2419 4116 
z
M 2253 4666 
L 3047 4666 
L 3047 1625 
L 3713 1625 
L 3713 1100 
L 3047 1100 
L 3047 0 
L 2419 0 
L 2419 1100 
L 313 1100 
L 313 1709 
L 2253 4666 
z
" transform="scale(0.015625)"/>
      </defs>
      <use xlink:href="#DejaVuSans-30"/>
      <use xlink:href="#DejaVuSans-2e" x="63.623047"/>
      <use xlink:href="#DejaVuSans-31" x="95.410156"/>
      <use xlink:href="#DejaVuSans-34" x="159.033203"/>
     </g>
    </g>
   </g>
  </g>
 </g>
 <defs>
  <clipPath id="p975aac9d26">
   <rect x="72" y="69.12" width="446.4" height="434.88"/>
  </clipPath>
 </defs>
</svg>
